# xmcd
#
# Track frame offsets: 
#        150
#        19274
#        35530
#        48015
#        58895
#        76789
#        96709
#        113081
#        126682
#        140752
#        157544
#        172671
#        184819
#        205967
#        220645
#        240657
#        256672
#        274796
#        290917
#        306376
#        339542
#
# Disc length: 4795 seconds
#
# Revision: 2
# Processed by: cddbd v1.5.2PL0 Copyright (c) Steve Scherf et al.
# Submitted via: ExactAudioCopy v1.3
#
DISCID=3512b915
DTITLE=Various Artist - Ladyhits - CD 1
DYEAR=2003
DGENRE=Pop
TTITLE0=Robbie Williams - Rock
TTITLE1=Destiny's Child - Independent Women Part I
TTITLE2=Cher - The Shoop Shoop Song (It's In His Kiss)
TTITLE3=Dusty Springfield - Son Of A Preacher Man
TTITLE4=Simply Red - Something Got Me Started
TTITLE5=Chaka Khan - Ain't Nobody
TTITLE6=Kool And The Gang - Fresh
TTITLE7=Tina Charles - I Love To Love
TTITLE8=Gloria Gaynor - I Will Survive
TTITLE9=Lara Fabian - I Will Love Again
TTITLE10=Harpo - Moviestar
TTITLE11=Earth, Wind And Fire - September '99
TTITLE12=Lionel Richie - My Destiny
TTITLE13=Barry White - You're The First, The Last, My Everything
TTITLE14=Toni Braxton - Un-Break My Heart
TTITLE15=Melanie Thornton - Love How You Love me
TTITLE16=Sarah Connor - From Sarah With Love
TTITLE17=Jennifer Paige - Crush
TTITLE18=Kylie Minogue - Spinning Around
TTITLE19=4 Non Blondes - What's Up
TTITLE20=data track - data track
EXTD=
EXTT0=
EXTT1=
EXTT2=
EXTT3=
EXTT4=
EXTT5=
EXTT6=
EXTT7=
EXTT8=
EXTT9=
EXTT10=
EXTT11=
EXTT12=
EXTT13=
EXTT14=
EXTT15=
EXTT16=
EXTT17=
EXTT18=
EXTT19=
EXTT20=
PLAYORDER=
